<svg width="300" viewBox="0 0 328 328" xmlns="http://www.w3.org/2000/svg">
    <g transform="matrix(9.781546, 0, 0, 9.781546, 6.056233, 6.571649)" fill="#a80038">
        <g xmlns="http://www.w3.org/2000/svg" display="none">
            <rect x="-111.333" y="-60.667" display="inline" fill="#a80038" width="473.333" height="236" />
        </g>
        <g xmlns="http://www.w3.org/2000/svg" display="none">
            <g display="inline">
                <path fill="#a80038" d="M31.335,4.35L16,0v0l0,0l0,0v0L0.665,4.35C0.665,4.35,1.58,19.376,16,32v0l0,0l0,0v0 C30.42,19.376,31.335,4.35,31.335,4.35z" />
                <path fill="#a80038" d="M16,0L16,0L16,0L16,0L16,0L0.665,4.35C0.665,4.35,1.58,19.376,16,32v0l0,0l0,0v0"></path>
            </g>
            <g display="inline">
                <polygon fill="#a80038" points="16,5.651 17.654,11.187 23.005,11.187 18.676,14.608 20.329,20.144 16,16.723 11.671,20.144 13.324,14.608 8.995,11.187 14.346,11.187"></polygon>
            </g>
        </g>
        <g xmlns="http://www.w3.org/2000/svg" display="none">
            <g display="inline">
                <g>
                    <path fill="#a80038" d="M16,1.04l14.25,4.042c-0.179,1.354-0.703,4.332-2.14,8.082C26.351,17.758,22.83,24.461,16,30.66 c-6.83-6.199-10.35-12.902-12.11-17.496C2.453,9.413,1.929,6.435,1.75,5.082L16,1.04 M16,0L16,0L16,0L16,0L0.665,4.35 C0.665,4.35,1.58,19.376,16,32v0l0,0l0,0v0C30.42,19.376,31.335,4.35,31.335,4.35L16,0L16,0L16,0z"></path>
                </g>
            </g>
            <g display="inline">
                <path fill="#a80038" d="M16,9.145l0.696,2.328l0.213,0.714h0.745h2.473l-2.071,1.637l-0.532,0.421l0.194,0.65l0.747,2.502 l-1.845-1.458L16,15.448l-0.62,0.49l-1.845,1.458l0.747-2.502l0.194-0.65l-0.532-0.421l-2.071-1.637h2.473h0.745l0.213-0.714 L16,9.145 M16,5.651l-1.654,5.536H8.995l4.329,3.421l-1.654,5.536L16,16.723l4.329,3.421l-1.654-5.536l4.329-3.421h-5.351 L16,5.651L16,5.651z"></path>
            </g>
        </g>
        <g xmlns="http://www.w3.org/2000/svg" display="none">
            <g display="inline">
                <path fill="#a80038" d="M16,31.333C3.504,20.197,1.478,7.144,1.203,4.717L16,0.52l14.797,4.197 C30.522,7.144,28.496,20.197,16,31.333z"></path>
                <g>
                    <path d="M16,1.04l14.25,4.042c-0.179,1.354-0.703,4.332-2.14,8.082C26.351,17.758,22.83,24.461,16,30.66 c-6.83-6.199-10.35-12.902-12.11-17.496C2.453,9.413,1.929,6.435,1.75,5.082L16,1.04 M16,0L16,0L16,0L16,0L0.665,4.35 C0.665,4.35,1.58,19.376,16,32v0l0,0l0,0v0C30.42,19.376,31.335,4.35,31.335,4.35L16,0L16,0L16,0z"></path>
                </g>
            </g>
            <g display="inline">
                <polygon fill="#a80038" points="16,16.085 12.604,18.771 13.9,14.427 10.434,11.687 14.719,11.687 16,7.398 17.281,11.687 21.566,11.687 18.1,14.427 19.396,18.771"></polygon>
                <g>
                    <path fill="#a80038" d="M16,9.145l0.696,2.328l0.213,0.714h0.745h2.473l-2.071,1.637l-0.532,0.421l0.194,0.65l0.747,2.502 l-1.845-1.458L16,15.448l-0.62,0.49l-1.845,1.458l0.747-2.502l0.194-0.65l-0.532-0.421l-2.071-1.637h2.473h0.745l0.213-0.714 L16,9.145 M16,5.651l-1.654,5.536H8.995l4.329,3.421l-1.654,5.536L16,16.723l4.329,3.421l-1.654-5.536l4.329-3.421h-5.351 L16,5.651L16,5.651z"></path>
                </g>
            </g>
        </g>
        <g xmlns="http://www.w3.org/2000/svg">
            <path d="M16,0L16,0L16,0L16,0L16,0L0.665,4.35C0.665,4.35,1.58,19.375,16,32v0l0,0l0,0v0C30.42,19.375,31.335,4.35,31.335,4.35 L16,0z M16,16.723l-4.329,3.421l1.654-5.536l-4.329-3.421h5.351L16,5.651l1.654,5.536h5.351l-4.329,3.421l1.654,5.536L16,16.723z"></path>
        </g>
    </g>
</svg>
