<svg xmlns="http://www.w3.org/2000/svg" aria-label="WireGuard Text" role="img" width="150" height="73.03554397561379" viewBox="0 0 370 73.03554397561379">
    <g transform="matrix(1.2369676587957892,0,0,1.2369676587957892,88.71355368203895,4.93762100406418)" fill="#ffffff">
        <path d="M13.52 40 l-3.36 0 l-9.12 -29.16 l3.2 0 l7.64 24.76 l0.08 0 l7.68 -24.76 l3.48 0 l7.76 24.88 l0.04 0 l7.68 -24.88 l3.08 0 l-9.16 29.16 l-3.4 0 l-7.76 -25.04 z M72.28 19.2 l-2.92 1.04 c-0.36 -1.04 -0.84 -2.12 -2 -3.44 c-0.56 -0.6 -1.2 -1.2 -1.92 -1.68 c-1.44 -1 -3.68 -1.72 -6.12 -1.72 c-2.2 0 -4.16 0.52 -5.92 1.64 s-3.12 2.56 -4.08 4.4 c-0.96 1.8 -1.44 3.76 -1.44 5.92 c0 3.28 1.12 6.32 3.04 8.52 c1.96 2.2 5 3.56 8.44 3.56 c2.6 0 5.08 -0.84 6.96 -2.28 s3.16 -3.76 3.32 -6.44 l-12.16 0 l0 -2.84 l15.44 0 l0 1.12 c0 3.68 -1.32 7 -3.6 9.4 c-2.32 2.4 -5.88 3.88 -10 3.88 c-4.36 0 -8.16 -1.6 -10.64 -4.24 s-3.96 -6.4 -3.96 -10.52 c0 -2.76 0.64 -5.32 1.92 -7.6 s3.04 -4.08 5.28 -5.4 s4.76 -1.96 7.48 -1.96 c3.44 0 6.48 0.96 8.56 2.64 c2.12 1.64 3.52 3.64 4.32 6 z M77.44 29.880000000000003 l0 -3.08 l10.64 0 l0 3.08 l-10.64 0 z M116.39999999999999 40 l-3.2 -7.44 l-15.88 0 l-3.2 7.44 l-3.12 0 l12.56 -29.16 l3.48 0 l12.6 29.16 l-3.24 0 z M112.03999999999999 29.759999999999998 l-6.8 -15.76 l-6.76 15.76 l13.56 0 z M123.8 40 l0 -29.16 l8.68 0 c2.24 0 4.32 0.36 6.24 1.12 c1.92 0.72 3.56 1.76 4.88 3.04 c2.68 2.6 4.28 6.28 4.28 10.36 c0 2.12 -0.4 4.12 -1.2 5.96 s-1.92 3.36 -3.28 4.64 c-2.76 2.52 -6.68 4.04 -10.92 4.04 l-8.68 0 z M126.88 13.719999999999999 l0 23.4 l5.48 0 c2.44 0 4.6 -0.52 6.44 -1.52 c1.88 -1 3.36 -2.36 4.36 -4.12 c1.04 -1.76 1.56 -3.8 1.56 -6.04 c0 -3.32 -1.24 -6.28 -3.36 -8.4 c-2.08 -2.08 -5.32 -3.32 -9 -3.32 l-5.48 0 z M179.95999999999998 10.84 l4.4 0 l0 29.16 l-3.04 0 l0 -25 l0 0 l-10.84 25 l-2.76 0 l-10.76 -24.8 l0 0 l0 24.8 l-3.04 0 l0 -29.16 l4.36 0 l10.88 25 z M192.48 40 l0 -29.16 l3.08 0 l0 29.16 l-3.08 0 z M224.4 10.84 l3 0 l0 29.16 l-3.32 0 l-17.4 -24.8 l0 24.8 l-3.04 0 l0 -29.16 l3.56 0 l17.2 24.52 l0 -24.52 z" />
    </g>
</svg>
